<?xml version="1.0" standalone="no"?>
<!DOCTYPE svg PUBLIC "-//W3C//DTD SVG 20010904//EN"
 "http://www.w3.org/TR/2001/REC-SVG-20010904/DTD/svg10.dtd">
<svg version="1.0" xmlns="http://www.w3.org/2000/svg"
 width="1200.000000pt" height="1200.000000pt" viewBox="0 0 1200.000000 1200.000000"
 preserveAspectRatio="xMidYMid meet">
<metadata>
Created by potrace 1.16, written by Peter Selinger 2001-2019
</metadata>
<g transform="translate(0.000000,1200.000000) scale(0.100000,-0.100000)"
fill="#000000" stroke="none">
<path d="M0 6000 l0 -6000 6000 0 6000 0 0 6000 0 6000 -6000 0 -6000 0 0
-6000z m9790 907 c-8 -7 -42 -24 -75 -36 -33 -13 -78 -38 -100 -55 -39 -31
-42 -31 -180 -36 -77 -3 -1285 -3 -2685 0 -1518 3 -2430 8 -2260 13 157 4
1361 7 2676 7 2375 0 2391 0 2409 20 18 20 15 20 -2196 21 -1218 1 -2380 5
-2584 8 -366 6 -362 6 375 14 410 4 1590 9 2622 10 l1877 2 28 22 c32 25 120
34 93 10z m959 -27 c-20 -38 -43 -52 -51 -29 -7 20 -53 -9 -88 -56 -19 -26
-46 -51 -60 -57 -14 -5 -135 -8 -280 -7 -239 3 -258 2 -289 -16 -19 -11 -42
-36 -52 -55 -23 -42 -25 -113 -4 -130 8 -7 15 -28 15 -46 l0 -34 148 -2 147
-2 -133 -5 c-113 -5 -135 -9 -143 -23 -13 -24 -35 -22 -62 5 -21 21 -22 28
-16 108 7 99 34 169 75 196 26 17 50 18 305 15 l278 -4 35 49 c20 26 36 50 36
53 0 3 -141 4 -312 2 -289 -3 -316 -5 -355 -23 -43 -21 -89 -70 -139 -150 -16
-25 -34 -44 -40 -42 -16 5 -8 106 11 143 22 43 83 108 116 126 31 16 84 20 60
5 -8 -5 -11 -16 -8 -25 6 -14 44 -16 344 -16 287 0 343 2 368 16 16 8 34 22
38 30 5 8 23 14 42 14 l35 0 -21 -40z m-8173 -132 c23 -36 23 -38 6 -55 -11
-10 -36 -65 -57 -123 -30 -84 -70 -158 -198 -365 -88 -143 -185 -300 -216
-350 -68 -112 -242 -358 -287 -405 -18 -19 -64 -84 -102 -145 -54 -86 -75
-110 -93 -112 -16 -1 -18 0 -6 3 14 4 15 9 7 19 -16 19 4 55 30 55 24 0 30 9
278 411 211 343 282 469 282 501 0 10 46 94 102 186 55 92 117 193 136 225 19
31 39 57 45 57 6 0 7 3 4 6 -3 4 -1 16 5 28 7 11 12 25 13 29 0 4 6 11 13 16
14 8 6 40 -12 54 -7 5 -3 7 8 5 10 -2 29 -20 42 -40z m418 28 c-30 -13 -61
-59 -159 -231 -105 -186 -695 -1112 -695 -1092 0 11 201 361 278 484 31 51
122 197 202 325 80 128 172 269 205 313 33 44 76 104 94 133 35 55 65 82 91
82 8 -1 1 -7 -16 -14z m6739 -226 c-7 -36 -12 -116 -13 -177 0 -62 -3 -113 -7
-113 -5 0 -16 7 -25 14 -37 28 -17 293 28 378 l18 33 6 -35 c3 -19 0 -64 -7
-100z m-3604 11 c19 -13 5 -64 -22 -76 -24 -11 -12 29 -178 -624 -51 -201 -94
-360 -96 -354 -2 6 23 117 56 247 33 130 58 242 55 249 -5 14 32 202 72 359
13 53 24 101 24 107 0 7 -36 11 -102 11 l-103 0 -140 -138 c-192 -190 -480
-448 -524 -471 -14 -7 -116 -103 -227 -212 -110 -110 -204 -199 -209 -199 -4
0 0 9 10 20 13 15 15 23 7 33 -9 10 -9 14 1 15 6 0 20 3 30 5 22 4 327 306
324 321 -1 6 3 10 9 9 7 -1 20 8 30 20 19 22 19 22 -2 4 -24 -20 -38 -12 -21
11 7 9 156 159 332 334 l320 318 157 0 c94 0 159 4 163 10 8 12 16 12 34 1z
m-2599 -33 c0 -15 -8 -33 -19 -40 -15 -11 -29 -66 -69 -268 -72 -363 -106
-566 -99 -584 8 -21 40 -20 59 2 58 66 328 545 328 582 0 7 43 83 95 170 l96
159 129 3 c82 2 130 -1 130 -7 0 -18 -14 -30 -56 -49 -36 -16 -54 -38 -170
-222 -204 -325 -455 -701 -412 -619 68 128 201 351 362 604 152 239 143 221
109 221 -22 0 -33 -8 -47 -32 -10 -18 -35 -60 -56 -93 -21 -33 -81 -132 -135
-220 -108 -177 -292 -441 -343 -492 -22 -22 -42 -33 -62 -33 -37 0 -40 7 -45
83 -5 71 10 179 66 490 22 120 37 222 34 227 -3 5 -1 11 5 15 5 3 10 17 10 31
0 24 -1 24 -90 24 -53 0 -90 -4 -90 -10 0 -5 -9 -10 -20 -10 -12 0 -24 -9 -28
-21 -5 -11 -12 -19 -17 -18 -12 3 -21 -10 -184 -271 -140 -224 -298 -457 -378
-556 -24 -29 -43 -57 -43 -63 0 -6 -5 -11 -11 -11 -6 0 -20 -11 -31 -26 -39
-49 -29 -15 15 53 95 146 285 451 321 516 21 38 35 75 32 83 -3 8 -2 13 3 10
5 -3 12 1 15 10 3 9 2 12 -4 9 -12 -7 15 39 123 213 43 68 77 129 77 136 0 27
26 31 209 31 l191 0 0 -27z m1090 -3 c0 -30 -3 -35 -24 -35 -13 0 -28 -6 -33
-12 -10 -13 -216 -600 -249 -713 -18 -59 -19 -59 -22 -24 -4 42 62 266 162
552 l65 188 -72 -3 -72 -3 -28 -90 c-77 -245 -128 -395 -152 -445 l-26 -55 5
40 c3 23 -14 -16 -38 -90 -56 -167 -59 -153 -4 21 28 89 45 130 50 122 6 -8 7
-5 3 9 -3 12 3 52 14 89 29 91 26 99 -9 29 -16 -33 -28 -51 -26 -40 6 30 128
429 132 434 2 2 14 -4 26 -15 l23 -19 -23 26 c-13 16 -20 32 -16 42 5 14 28
17 157 20 84 1 153 4 155 5 1 1 2 -14 2 -33z m799 10 c-8 -7 -39 -23 -69 -35
-49 -19 -93 -59 -405 -368 -192 -191 -336 -331 -319 -312 48 55 317 354 329
365 6 6 71 72 145 148 l133 137 -146 0 -146 0 15 -36 c8 -19 14 -57 13 -82 -1
-26 2 -59 5 -73 7 -23 -6 -39 -110 -148 -65 -67 -179 -179 -253 -247 -75 -69
-166 -154 -202 -190 -36 -35 -73 -64 -81 -64 -24 0 -48 28 -47 53 1 20 2 20 8
-3 5 -17 15 -26 32 -28 21 -2 40 13 105 85 145 160 147 163 132 181 -8 10 -9
13 -1 9 6 -4 13 -1 15 8 5 22 318 366 328 360 4 -3 19 -1 32 4 l23 10 -22 0
c-24 1 -33 34 -13 46 15 9 12 52 -5 85 -16 32 -41 47 -132 82 l-58 23 350 5
c193 3 352 4 354 2 3 -1 -2 -9 -10 -17z m3311 5 c-6 -12 -31 -30 -54 -40 -34
-14 -51 -31 -80 -79 -21 -34 -39 -61 -42 -61 -2 0 10 27 27 61 16 34 29 63 27
65 -2 2 -157 1 -344 -3 l-340 -6 -49 -70 c-27 -38 -72 -94 -99 -126 -27 -31
-77 -99 -111 -151 -133 -207 -348 -554 -360 -584 -15 -36 -62 -83 -72 -72 -4
4 -3 10 3 14 6 4 82 120 170 257 150 237 233 384 234 413 0 16 28 65 135 237
45 72 84 137 87 145 5 13 65 15 442 18 l437 3 -11 -21z m757 -1 c54 -14 81
-42 63 -64 -11 -13 -10 -14 3 -10 24 10 34 -35 11 -51 -11 -8 -25 -18 -32 -24
-10 -9 -11 -3 -6 29 6 37 4 41 -27 60 -19 11 -45 29 -57 41 -22 19 -36 20
-266 20 -230 0 -242 -1 -259 -20 -9 -11 -17 -22 -17 -25 0 -3 82 -5 182 -5
100 0 179 -2 176 -5 -3 -3 -83 -6 -178 -6 l-173 -1 -44 -46 c-57 -61 -497
-752 -478 -752 4 0 3 -6 -2 -12 -6 -7 -29 -48 -52 -90 l-42 -78 59 0 59 0 78
120 c43 66 80 120 82 120 6 0 -31 -63 -97 -170 l-47 -75 -83 -3 c-46 -2 -90
-8 -97 -14 -7 -6 -13 -7 -13 -3 0 4 76 127 168 273 205 326 219 349 227 393 4
19 55 114 115 209 72 118 104 177 97 182 -8 5 -6 8 6 8 9 0 17 3 17 8 0 11
579 3 627 -9z m-2139 -24 c37 -17 65 -37 76 -56 17 -28 17 -30 -3 -58 -12 -16
-21 -35 -21 -43 0 -7 -8 -1 -17 13 -20 33 -86 77 -133 88 -19 5 -144 11 -277
14 -200 3 -243 2 -243 -9 0 -8 -7 -14 -15 -14 -24 0 -73 -54 -170 -189 -50
-68 -111 -147 -136 -176 -25 -28 -126 -179 -224 -334 -98 -154 -180 -279 -183
-276 -3 2 37 71 88 152 175 277 272 436 285 467 17 44 25 66 23 69 -3 5 29 58
130 221 l105 169 328 -6 c327 -6 329 -6 387 -32z m2068 -159 c-4 -20 -19 -48
-34 -62 -27 -25 -399 -214 -497 -252 -59 -23 -95 -15 -95 20 0 19 2 20 10 8 6
-10 10 -11 10 -2 0 6 9 12 21 12 16 0 19 -4 14 -20 -3 -11 -3 -20 2 -20 11 0
204 93 200 96 -1 2 -22 -4 -46 -12 -90 -31 -48 -2 119 81 95 47 185 94 200
105 16 11 41 21 57 21 16 1 21 3 11 6 -22 6 -23 29 -2 37 11 4 14 13 11 28 -5
19 -5 20 10 6 11 -12 14 -26 9 -52z m-6101 27 c13 -12 16 -28 13 -64 -3 -27
-1 -50 3 -51 8 -3 -5 -82 -53 -317 -15 -74 -24 -99 -29 -85 -4 10 -8 15 -8 11
-2 -16 -72 -372 -77 -386 -2 -8 -7 -12 -9 -9 -3 2 13 103 35 223 43 234 47
273 24 211 -32 -89 -30 -51 12 184 14 76 34 153 46 177 19 35 20 44 9 57 -20
23 -44 20 -73 -11 -14 -16 -90 -134 -168 -263 -78 -129 -174 -284 -213 -344
-39 -60 -72 -121 -73 -135 -1 -14 -2 -34 -3 -43 0 -10 -6 -18 -12 -18 -26 0 0
88 56 190 95 173 386 654 407 673 26 22 91 22 113 0z m2523 -35 c15 -15 16
-57 2 -93 -7 -17 -7 -24 0 -20 16 10 11 -27 -10 -70 l-20 -40 5 40 c8 64 -6
23 -110 -332 -53 -180 -99 -334 -101 -342 -3 -8 -6 -12 -9 -9 -2 2 35 139 84
305 100 342 109 377 81 318 -10 -22 -21 -49 -24 -60 -3 -10 -8 -16 -11 -13
-10 10 45 188 66 218 41 55 -3 92 -62 52 -14 -9 -102 -94 -195 -187 -93 -94
-182 -182 -199 -195 l-30 -25 31 35 c109 126 230 258 308 338 88 89 92 92 136
92 25 0 51 -5 58 -12z m1342 -18 c89 -15 124 -37 128 -80 8 -81 -19 -125 -118
-191 -22 -15 -36 -30 -30 -34 5 -3 10 -20 10 -37 0 -17 -3 -28 -6 -25 -4 3
-15 2 -25 -4 -26 -13 -24 -1 3 20 l22 18 -28 18 c-25 16 -30 17 -66 2 -58 -22
-40 -4 53 57 45 29 88 60 96 69 7 9 26 17 42 17 16 0 29 5 29 11 0 6 -7 9 -15
5 -20 -7 -20 18 1 34 24 21 13 62 -22 82 -44 26 -166 40 -346 41 -190 2 -181
6 -286 -144 -70 -99 -113 -152 -81 -99 9 14 44 73 78 133 43 74 70 109 84 112
12 2 31 6 42 9 33 8 365 -3 435 -14z m2900 -406 c-79 -159 -221 -367 -359
-527 -138 -161 -227 -221 -354 -237 -88 -11 -2043 -13 -3418 -2 -952 7 -902 7
1191 12 l2185 5 80 39 c64 32 75 40 56 44 l-23 4 28 17 c16 10 65 52 110 94
45 42 83 74 86 72 10 -10 92 72 174 173 93 117 220 301 274 399 63 114 44 55
-30 -93z m182 34 c-11 -18 -61 -103 -112 -188 -187 -312 -327 -508 -443 -617
-34 -32 -49 -53 -40 -53 9 0 13 -3 9 -7 -8 -8 -4787 -5 -4795 3 -2 2 1058 4
2356 4 l2360 0 29 22 c108 84 251 267 488 626 88 133 162 242 164 242 2 0 -5
-15 -16 -32z m-982 -133 c0 -7 -7 -34 -15 -61 -8 -27 -15 -59 -15 -72 0 -23
-37 -102 -85 -179 l-26 -43 55 0 55 0 54 98 c30 53 74 141 98 194 23 54 44 96
46 94 7 -7 -59 -164 -114 -276 l-58 -115 -90 -5 c-49 -4 -98 -10 -109 -14 -11
-6 8 29 46 85 111 162 131 203 132 276 1 53 3 60 14 46 6 -9 12 -22 12 -28z"/>
<path d="M4860 6523 c22 -16 50 -18 237 -18 186 0 214 2 229 17 16 16 2 17
-237 18 -246 0 -253 0 -229 -17z"/>
<path d="M8190 6540 c-146 -3 -266 -7 -267 -8 -2 -1 -3 -9 -3 -17 0 -13 46
-15 353 -15 330 0 355 1 370 18 33 36 80 34 -453 22z"/>
<path d="M6685 6530 c-4 -6 -3 -15 1 -20 13 -11 593 -20 600 -9 12 20 -53 27
-317 34 -211 5 -278 4 -284 -5z"/>
</g>
</svg>
